<svg width="35" height="35" viewBox="0 0 35 35" fill="none" xmlns="http://www.w3.org/2000/svg">
<path d="M29.3433 26.0996C28.6985 24.5724 27.7629 23.1851 26.5884 22.0151C25.4175 20.8418 24.0305 19.9063 22.5039 19.2603C22.4903 19.2534 22.4766 19.25 22.4629 19.2432C24.5923 17.7051 25.9766 15.1997 25.9766 12.373C25.9766 7.69043 22.1826 3.89648 17.5 3.89648C12.8174 3.89648 9.02346 7.69043 9.02346 12.373C9.02346 15.1997 10.4077 17.7051 12.5371 19.2466C12.5235 19.2534 12.5098 19.2568 12.4961 19.2637C10.9649 19.9097 9.59085 20.8359 8.41165 22.0186C7.23829 23.1894 6.30277 24.5765 5.65676 26.103C5.02212 27.5975 4.67985 29.1999 4.64846 30.8232C4.64755 30.8597 4.65395 30.896 4.66728 30.93C4.68061 30.964 4.70061 30.9949 4.72609 31.021C4.75157 31.0471 4.78203 31.0679 4.81566 31.0821C4.84928 31.0962 4.88541 31.1035 4.9219 31.1035H6.97268C7.12307 31.1035 7.2427 30.9839 7.24612 30.8369C7.31448 28.1982 8.37405 25.7271 10.2471 23.854C12.1851 21.916 14.7588 20.8496 17.5 20.8496C20.2412 20.8496 22.815 21.916 24.753 23.854C26.626 25.7271 27.6856 28.1982 27.7539 30.8369C27.7573 30.9873 27.877 31.1035 28.0274 31.1035H30.0781C30.1146 31.1035 30.1508 31.0962 30.1844 31.0821C30.218 31.0679 30.2485 31.0471 30.274 31.021C30.2994 30.9949 30.3194 30.964 30.3328 30.93C30.3461 30.896 30.3525 30.8597 30.3516 30.8232C30.3174 29.1895 29.979 27.6001 29.3433 26.0996V26.0996ZM17.5 18.252C15.9312 18.252 14.4546 17.6401 13.3438 16.5293C12.2329 15.4185 11.6211 13.9419 11.6211 12.373C11.6211 10.8042 12.2329 9.32764 13.3438 8.2168C14.4546 7.10596 15.9312 6.49414 17.5 6.49414C19.0689 6.49414 20.5454 7.10596 21.6563 8.2168C22.7671 9.32764 23.3789 10.8042 23.3789 12.373C23.3789 13.9419 22.7671 15.4185 21.6563 16.5293C20.5454 17.6401 19.0689 18.252 17.5 18.252Z" fill="black"/>
</svg>
